<svg width="24" height="24" viewBox="0 0 24 24" fill="none" xmlns="http://www.w3.org/2000/svg">
<path d="M23.5154 5.06395C23.4629 4.48338 23.3543 3.9588 23.1051 3.47309C22.7085 2.71343 22.0811 2.0992 21.3131 1.7188C20.8229 1.4708 20.296 1.38166 19.7143 1.34166C19.1509 1.30052 18.4663 1.30738 17.6229 1.31652L6.70057 1.4308C5.85714 1.4388 5.17143 1.44566 4.60914 1.49938C4.02857 1.55195 3.504 1.65938 3.01829 1.90966C2.25257 2.3108 1.64 2.93709 1.264 3.70052C1.016 4.19195 0.926858 4.71766 0.886858 5.30052C0.845716 5.8628 0.85143 6.54852 0.85943 7.39195L0.918858 13.0217C1.49628 12.6705 2.12758 12.4168 2.78743 12.2708L2.73714 7.41023C2.728 6.51881 2.72114 5.90966 2.75314 5.4308C2.78743 4.97023 2.84914 4.71652 2.94172 4.53709C3.144 4.12223 3.47886 3.78052 3.888 3.57023C4.06629 3.47423 4.31886 3.4068 4.77714 3.36452C5.256 3.32109 5.86514 3.31538 6.75657 3.30623L17.6023 3.19195C18.4937 3.18395 19.104 3.17709 19.5829 3.21023C20.0423 3.24223 20.2971 3.30509 20.4766 3.39766C20.8914 3.59995 21.232 3.9348 21.4434 4.34509C21.5383 4.52223 21.6069 4.7748 21.6491 5.23423C21.6914 5.71195 21.6983 6.32223 21.7074 7.21366L21.7623 12.4582L20.3406 11.0651C20.1684 10.8927 19.9911 10.7254 19.8091 10.5634C19.6081 10.3869 19.3738 10.2525 19.12 10.1679C18.7229 10.0404 18.2952 10.0444 17.9006 10.1794C17.6498 10.272 17.419 10.4116 17.2206 10.5908C17.0617 10.7337 16.8857 10.9131 16.6994 11.1028L14.3794 13.4731L14.1131 13.2125C13.9413 13.0405 13.7645 12.8736 13.5829 12.7119C13.382 12.535 13.1476 12.4002 12.8937 12.3154C12.4965 12.1882 12.0688 12.1926 11.6743 12.3279C11.4231 12.4204 11.1919 12.5601 10.9931 12.7394C10.8354 12.8811 10.6583 13.0617 10.4731 13.2514L9.23886 14.5119C9.64686 15.0148 9.97143 15.5828 10.2126 16.1999L11.7909 14.5885C12.0046 14.3702 12.1257 14.2468 12.2274 14.1611C12.246 14.1416 12.2681 14.1257 12.2926 14.1142H12.3211C12.3303 14.1142 12.3497 14.1325 12.3874 14.1599C12.4823 14.2434 12.6149 14.3634 12.8331 14.5771L18.4446 20.0742L17.7874 20.0811L10.4503 20.1565C10.2751 20.824 9.99712 21.4602 9.62629 22.0422L17.8446 21.9565C18.6903 21.9474 19.3737 21.9405 19.936 21.8879C20.5189 21.8354 21.0423 21.7268 21.528 21.4765C22.2937 21.0754 22.9051 20.4491 23.2823 19.6857C23.5303 19.1942 23.6194 18.6685 23.6594 18.0857C23.7006 17.5234 23.6937 16.8388 23.6846 15.9942L23.672 14.7085L23.592 7.15538C23.584 6.31195 23.5771 5.62623 23.5234 5.06395H23.5154ZM21.8 15.9759C21.8091 16.8674 21.816 17.4777 21.7829 17.9565C21.7509 18.4159 21.6869 18.6697 21.5954 18.8491C21.4114 19.2171 21.1234 19.5302 20.7783 19.7405L15.7166 14.7817L18.0194 12.4308C18.2331 12.2137 18.3531 12.0902 18.456 12.0045C18.4745 11.9846 18.4966 11.9683 18.5211 11.9565H18.5486C18.5589 11.9565 18.5771 11.9839 18.6149 12.0022C18.7097 12.0857 18.8434 12.2068 19.0606 12.4205L21.8 15.1039L21.8091 15.9668L21.8 15.9759Z" fill="white"/>
<path d="M11.0914 8.58054C11.0874 8.18392 11.0053 7.79198 10.8497 7.42711C10.6942 7.06224 10.4682 6.7316 10.1849 6.45406C9.9015 6.17653 9.56623 5.95755 9.1982 5.80963C8.83018 5.66171 8.43661 5.58774 8.03999 5.59197C7.64318 5.5957 7.25099 5.67762 6.88586 5.83303C6.52073 5.98845 6.18982 6.21431 5.91204 6.49771C5.63427 6.78111 5.41508 7.11649 5.26701 7.48466C5.11895 7.85284 5.04491 8.24659 5.04914 8.6434C5.05287 9.0404 5.13486 9.43278 5.29042 9.79806C5.44597 10.1633 5.67205 10.4944 5.95569 10.7722C6.23933 11.05 6.57498 11.2691 6.94342 11.417C7.31186 11.565 7.70585 11.6388 8.10285 11.6343C8.49957 11.6304 8.89163 11.5483 9.25663 11.3929C9.62163 11.2374 9.95241 11.0115 10.2301 10.7281C10.5077 10.4447 10.7268 10.1094 10.8748 9.7413C11.0228 9.3732 11.0968 8.97954 11.0926 8.58283L11.0914 8.58054ZM6.91656 8.62397C6.91475 8.4736 6.94264 8.32435 6.99862 8.18477C7.0546 8.0452 7.13757 7.91805 7.24279 7.8106C7.348 7.70316 7.47339 7.61753 7.61176 7.55864C7.75013 7.49975 7.89876 7.46874 8.04914 7.4674C8.35249 7.46556 8.64428 7.58369 8.86092 7.79605C9.07756 8.0084 9.20149 8.29778 9.20571 8.60111C9.20755 8.90427 9.08958 9.19589 8.87746 9.4125C8.66535 9.62911 8.37627 9.75317 8.07314 9.75768C7.76978 9.75952 7.47799 9.64139 7.26135 9.42903C7.04471 9.21667 6.92078 8.9273 6.91656 8.62397Z" fill="white"/>
<path fill-rule="evenodd" clip-rule="evenodd" d="M0.712502 13.8779C0.711898 13.8213 0.722446 13.7652 0.743543 13.7127C0.76464 13.6602 0.795872 13.6123 0.835457 13.5719C0.875042 13.5315 0.922204 13.4992 0.97425 13.477C1.0263 13.4548 1.08221 13.4431 1.13879 13.4425L3.71936 13.4151C3.95364 13.4128 4.15364 13.5979 4.15593 13.8425L4.18222 16.4139C4.18267 16.4705 4.17197 16.5266 4.15073 16.5791C4.1295 16.6315 4.09814 16.6793 4.05845 16.7196C4.01876 16.7599 3.97151 16.792 3.91941 16.8141C3.86731 16.8362 3.81137 16.8478 3.75479 16.8482C3.698 16.8496 3.64152 16.8396 3.58867 16.8187C3.53582 16.7979 3.48767 16.7667 3.44708 16.727C3.4065 16.6872 3.37428 16.6398 3.35234 16.5874C3.33041 16.535 3.31919 16.4787 3.31936 16.4219L3.30107 14.6493C3.0405 14.8665 2.66793 15.2093 2.16736 15.7213C1.73845 16.1599 1.43472 16.7053 1.28768 17.3009C1.14064 17.8964 1.15564 18.5205 1.33114 19.1083C1.50663 19.6961 1.83622 20.2263 2.2857 20.6438C2.73519 21.0612 3.2882 21.3508 3.88736 21.4825C3.94291 21.4941 3.99557 21.5167 4.04219 21.549C4.08882 21.5814 4.12845 21.6228 4.15874 21.6708C4.18903 21.7188 4.20934 21.7724 4.21848 21.8284C4.22762 21.8844 4.22539 21.9416 4.21193 21.9968C4.20021 22.052 4.17755 22.1043 4.1453 22.1506C4.11304 22.1969 4.07184 22.2363 4.02413 22.2664C3.97641 22.2966 3.92314 22.3169 3.86746 22.3261C3.81179 22.3353 3.75482 22.3333 3.69993 22.3202C2.90711 22.1531 2.17957 21.7601 1.60507 21.1888C1.20139 20.7949 0.879436 20.3251 0.657668 19.8065C0.435901 19.2879 0.318684 18.7306 0.312738 18.1666C0.306792 17.6026 0.412235 17.043 0.62302 16.5198C0.833804 15.9967 1.14579 15.5203 1.54107 15.1179C1.88393 14.7671 2.16393 14.5008 2.40507 14.2836L1.14793 14.2951C1.09135 14.2957 1.0352 14.2851 0.982697 14.264C0.930192 14.2429 0.882356 14.2117 0.841922 14.1721C0.801488 14.1325 0.769248 14.0854 0.747042 14.0333C0.724836 13.9813 0.713099 13.9254 0.712502 13.8688V13.8779ZM5.41422 13.9236C5.42581 13.8683 5.44837 13.8159 5.48057 13.7694C5.51277 13.723 5.55395 13.6835 5.60168 13.6532C5.64941 13.623 5.70272 13.6026 5.75846 13.5933C5.8142 13.584 5.87125 13.5859 5.92622 13.5991C6.6885 13.7591 7.42336 14.1362 8.02107 14.7305C8.42468 15.1245 8.74654 15.5943 8.96821 16.1129C9.18988 16.6316 9.30699 17.1889 9.31283 17.7529C9.31867 18.3169 9.21313 18.8765 9.00224 19.3996C8.79136 19.9227 8.47929 20.3991 8.08393 20.8013C7.8046 21.0883 7.51646 21.3665 7.21993 21.6356L8.48736 21.6231C8.72164 21.6208 8.92165 21.8059 8.92279 22.0493C8.92432 22.1062 8.91441 22.1628 8.89366 22.2158C8.87291 22.2688 8.84173 22.3171 8.80198 22.3578C8.76223 22.3985 8.71471 22.4308 8.66223 22.4528C8.60976 22.4748 8.5534 22.4861 8.4965 22.4859L5.91593 22.5122C5.80394 22.5133 5.69585 22.4712 5.61422 22.3945C5.53517 22.3147 5.49011 22.2074 5.4885 22.0951L5.46222 19.5145C5.46161 19.4578 5.4722 19.4016 5.49337 19.349C5.51453 19.2964 5.54587 19.2485 5.58558 19.2081C5.62528 19.1676 5.67258 19.1354 5.72476 19.1133C5.77693 19.0911 5.83297 19.0795 5.88964 19.0791C6.13307 19.0768 6.32393 19.2619 6.32622 19.5053L6.3445 21.2791C6.60507 21.0608 6.9765 20.7191 7.47822 20.2071C7.90743 19.7684 8.21139 19.2229 8.35854 18.6271C8.50569 18.0313 8.49067 17.407 8.31503 16.8189C8.13939 16.2309 7.80954 15.7006 7.35973 15.2831C6.90992 14.8656 6.35655 14.5762 5.75707 14.4448C5.70176 14.4332 5.64934 14.4106 5.60289 14.3784C5.55645 14.3462 5.51693 14.305 5.48667 14.2573C5.45641 14.2096 5.43603 14.1563 5.42673 14.1005C5.41742 14.0448 5.41939 13.9877 5.4325 13.9328L5.41422 13.9236Z" fill="white"/>
</svg>
