<svg width="18" height="20" viewBox="0 0 18 20" fill="none" xmlns="http://www.w3.org/2000/svg">
<path d="M17.2435 6.81978L9.44351 0.766651C9.29455 0.644775 9.11851 0.583839 8.91538 0.583839C8.71226 0.583839 8.53621 0.644775 8.38726 0.766651L0.587256 6.81978C0.478923 6.90103 0.394287 7.00259 0.33335 7.12446C0.272412 7.24634 0.241943 7.37498 0.241943 7.5104V17.037C0.241943 17.7547 0.49585 18.3674 1.00366 18.8752C1.51147 19.3831 2.12424 19.637 2.84194 19.637H14.9888C15.7065 19.637 16.3193 19.3831 16.8271 18.8752C17.3349 18.3674 17.5888 17.7547 17.5888 17.037V7.5104C17.5888 7.37498 17.5583 7.24634 17.4974 7.12446C17.4365 7.00259 17.3518 6.90103 17.2435 6.81978ZM10.6419 17.9104H7.18882V10.9838H10.6419V17.9104ZM15.8419 17.037C15.8419 17.2807 15.7573 17.4872 15.588 17.6565C15.4188 17.8258 15.219 17.9104 14.9888 17.9104H12.3888V10.1104C12.3888 9.86665 12.3042 9.66014 12.1349 9.49087C11.9656 9.3216 11.7591 9.23696 11.5154 9.23696H6.31538C6.07163 9.23696 5.86512 9.3216 5.69585 9.49087C5.52658 9.66014 5.44194 9.86665 5.44194 10.1104V17.9104H2.84194C2.61173 17.9104 2.412 17.8258 2.24272 17.6565C2.07345 17.4872 1.98882 17.2807 1.98882 17.037V7.93696L8.91538 2.53384L15.8419 7.93696V17.037Z" fill="#E2E2E2"/>
</svg>
