<svg width="28" height="28" viewBox="0 0 28 28" fill="none" xmlns="http://www.w3.org/2000/svg">
<path d="M8.02258 12.5122C5.31495 15.5842 4.36282 19.6776 5.16231 23.4687C7.31246 25.4518 10.135 26.7164 13.2495 26.8808C12.7934 26.5308 12.3565 26.15 11.9423 25.7379C9.43743 23.2453 8.04628 19.9289 8.02288 16.3969L8.02258 16.3966V12.5122Z" stroke="url(#paint0_linear_165_1022)" stroke-width="0.625781" stroke-miterlimit="10"/>
<path d="M8.02258 12.5122C5.31495 15.5842 4.36282 19.6776 5.16231 23.4687C7.31246 25.4518 10.135 26.7164 13.2495 26.8808C12.7934 26.5308 12.3565 26.15 11.9423 25.7379C9.43743 23.2453 8.04628 19.9289 8.02288 16.3969L8.02258 16.3966V12.5122Z" stroke="url(#paint1_radial_165_1022)" stroke-width="0.625781" stroke-miterlimit="10"/>
<path d="M13.4452 1C10.3354 1.11815 7.50693 2.33178 5.33398 4.26692C5.88847 4.19585 6.45075 4.15866 7.01872 4.15716C7.02982 4.15716 7.04121 4.15716 7.05261 4.15716C10.5795 4.15716 13.8902 5.54322 16.3975 8.02414L19.1571 10.7837C18.9067 6.69327 16.6893 3.12077 13.4452 1Z" stroke="url(#paint2_linear_165_1022)" stroke-width="0.625781" stroke-miterlimit="10"/>
<path d="M13.4452 1C10.3354 1.11815 7.50693 2.33178 5.33398 4.26692C5.88847 4.19585 6.45075 4.15866 7.01872 4.15716C7.02982 4.15716 7.04121 4.15716 7.05261 4.15716C10.5795 4.15716 13.8902 5.54322 16.3975 8.02414L19.1571 10.7837C18.9067 6.69327 16.6893 3.12077 13.4452 1Z" stroke="url(#paint3_radial_165_1022)" stroke-width="0.625781" stroke-miterlimit="10"/>
<path d="M14.6816 1.01074C15.1261 1.35381 15.5516 1.72626 15.9558 2.1284C18.4647 4.62493 19.8567 7.94852 19.8753 11.4871L19.8633 15.3706C22.5691 12.3004 23.5219 8.21002 22.7248 4.42101C20.5854 2.44688 17.7791 1.18497 14.6816 1.01074Z" stroke="url(#paint4_linear_165_1022)" stroke-width="0.625781" stroke-miterlimit="10"/>
<path d="M14.6816 1.01074C15.1261 1.35381 15.5516 1.72626 15.9558 2.1284C18.4647 4.62493 19.8567 7.94852 19.8753 11.4871L19.8633 15.3706C22.5691 12.3004 23.5219 8.21002 22.7248 4.42101C20.5854 2.44688 17.7791 1.18497 14.6816 1.01074Z" stroke="url(#paint5_radial_165_1022)" stroke-width="0.625781" stroke-miterlimit="10"/>
<path d="M8.74609 17.1195C9.00819 21.2075 11.2348 24.7752 14.4864 26.887C17.6058 26.7583 20.4403 25.527 22.6106 23.5721C22.039 23.6476 21.459 23.6875 20.873 23.689C20.8619 23.689 20.8505 23.689 20.8391 23.689C17.3224 23.689 14.0108 22.3318 11.5062 19.8646L8.74609 17.1195Z" stroke="url(#paint6_linear_165_1022)" stroke-width="0.625781" stroke-miterlimit="10"/>
<path d="M8.74609 17.1195C9.00819 21.2075 11.2348 24.7752 14.4864 26.887C17.6058 26.7583 20.4403 25.527 22.6106 23.5721C22.039 23.6476 21.459 23.6875 20.873 23.689C20.8619 23.689 20.8505 23.689 20.8391 23.689C17.3224 23.689 14.0108 22.3318 11.5062 19.8646L8.74609 17.1195Z" stroke="url(#paint7_radial_165_1022)" stroke-width="0.625781" stroke-miterlimit="10"/>
<path d="M23.5936 5.30225C23.6665 5.86333 23.7049 6.4322 23.7061 7.00708C23.7148 10.5448 22.3503 13.8777 19.864 16.3922L17.1191 19.1415C21.2062 18.8812 24.7733 16.657 26.8866 13.4081C26.7601 10.298 25.5371 7.4707 23.5936 5.30225Z" stroke="url(#paint8_linear_165_1022)" stroke-width="0.625781" stroke-miterlimit="10"/>
<path d="M23.5936 5.30225C23.6665 5.86333 23.7049 6.4322 23.7061 7.00708C23.7148 10.5448 22.3503 13.8777 19.864 16.3922L17.1191 19.1415C21.2062 18.8812 24.7733 16.657 26.8866 13.4081C26.7601 10.298 25.5371 7.4707 23.5936 5.30225Z" stroke="url(#paint9_radial_165_1022)" stroke-width="0.625781" stroke-miterlimit="10"/>
<path d="M7.05239 4.86572C6.17854 4.86572 5.30558 4.95539 4.44702 5.13472C2.4546 7.28157 1.1813 10.1047 1.00977 13.2216C1.35313 12.7766 1.72618 12.3502 2.12893 11.9456C4.62545 9.43653 7.94934 8.04717 11.4877 8.02828L11.4919 8.02408H15.4101C13.035 5.91801 10.0434 4.86572 7.05239 4.86572Z" stroke="url(#paint10_linear_165_1022)" stroke-width="0.625781" stroke-miterlimit="10"/>
<path d="M7.05239 4.86572C6.17854 4.86572 5.30558 4.95539 4.44702 5.13472C2.4546 7.28157 1.1813 10.1047 1.00977 13.2216C1.35313 12.7766 1.72618 12.3502 2.12893 11.9456C4.62545 9.43653 7.94934 8.04717 11.4877 8.02828L11.4919 8.02408H15.4101C13.035 5.91801 10.0434 4.86572 7.05239 4.86572Z" stroke="url(#paint11_radial_165_1022)" stroke-width="0.625781" stroke-miterlimit="10"/>
<path d="M26.879 14.644C26.5305 15.0978 26.1515 15.5323 25.7415 15.9443C23.248 18.4501 19.9295 19.8416 16.396 19.8638L12.5293 19.8644C14.8972 21.9423 17.8681 22.9805 20.839 22.9805C21.7276 22.9805 22.6161 22.8875 23.4885 22.7019C25.4581 20.5562 26.7137 17.7451 26.879 14.644Z" stroke="url(#paint12_linear_165_1022)" stroke-width="0.625781" stroke-miterlimit="10"/>
<path d="M26.879 14.644C26.5305 15.0978 26.1515 15.5323 25.7415 15.9443C23.248 18.4501 19.9295 19.8416 16.396 19.8638L12.5293 19.8644C14.8972 21.9423 17.8681 22.9805 20.839 22.9805C21.7276 22.9805 22.6161 22.8875 23.4885 22.7019C25.4581 20.5562 26.7137 17.7451 26.879 14.644Z" stroke="url(#paint13_radial_165_1022)" stroke-width="0.625781" stroke-miterlimit="10"/>
<path d="M10.7681 8.74756C6.68427 9.00246 3.11807 11.218 1 14.4579C1.12175 17.5773 2.34587 20.4136 4.29451 22.5874C4.22134 22.0245 4.18265 21.4533 4.18115 20.8763C4.17246 17.3368 5.53842 14.0024 8.02714 11.4873L10.7681 8.74756Z" stroke="url(#paint14_linear_165_1022)" stroke-width="0.625781" stroke-miterlimit="10"/>
<path d="M10.7681 8.74756C6.68427 9.00246 3.11807 11.218 1 14.4579C1.12175 17.5773 2.34587 20.4136 4.29451 22.5874C4.22134 22.0245 4.18265 21.4533 4.18115 20.8763C4.17246 17.3368 5.53842 14.0024 8.02714 11.4873L10.7681 8.74756Z" stroke="url(#paint15_radial_165_1022)" stroke-width="0.625781" stroke-miterlimit="10"/>
<defs>
<linearGradient id="paint0_linear_165_1022" x1="13.2495" y1="19.6965" x2="4.88867" y2="19.6965" gradientUnits="userSpaceOnUse">
<stop offset="0.035" stop-color="#CF1659"/>
<stop offset="0.405" stop-color="#FB4EA1"/>
<stop offset="0.575" stop-color="#FF5A82"/>
<stop offset="0.9999" stop-color="#DB684F"/>
<stop offset="1" stop-color="#FFA439"/>
</linearGradient>
<radialGradient id="paint1_radial_165_1022" cx="0" cy="0" r="1" gradientUnits="userSpaceOnUse" gradientTransform="translate(8.12934 34.8855) scale(21.3319 25.1076)">
<stop stop-color="#CC47FF"/>
<stop offset="1" stop-color="#9A5CFF"/>
</radialGradient>
<linearGradient id="paint2_linear_165_1022" x1="19.1571" y1="5.89183" x2="5.33398" y2="5.89183" gradientUnits="userSpaceOnUse">
<stop offset="0.035" stop-color="#CF1659"/>
<stop offset="0.405" stop-color="#FB4EA1"/>
<stop offset="0.575" stop-color="#FF5A82"/>
<stop offset="0.9999" stop-color="#DB684F"/>
<stop offset="1" stop-color="#FFA439"/>
</linearGradient>
<radialGradient id="paint3_radial_165_1022" cx="0" cy="0" r="1" gradientUnits="userSpaceOnUse" gradientTransform="translate(10.6918 16.2341) scale(35.2682 17.096)">
<stop stop-color="#CC47FF"/>
<stop offset="1" stop-color="#9A5CFF"/>
</radialGradient>
<linearGradient id="paint4_linear_165_1022" x1="22.9971" y1="8.19068" x2="14.6816" y2="8.19068" gradientUnits="userSpaceOnUse">
<stop offset="0.035" stop-color="#CF1659"/>
<stop offset="0.405" stop-color="#FB4EA1"/>
<stop offset="0.575" stop-color="#FF5A82"/>
<stop offset="0.9999" stop-color="#DB684F"/>
<stop offset="1" stop-color="#FFA439"/>
</linearGradient>
<radialGradient id="paint5_radial_165_1022" cx="0" cy="0" r="1" gradientUnits="userSpaceOnUse" gradientTransform="translate(17.9047 23.3705) scale(21.216 25.0924)">
<stop stop-color="#CC47FF"/>
<stop offset="1" stop-color="#9A5CFF"/>
</radialGradient>
<linearGradient id="paint6_linear_165_1022" x1="22.6106" y1="22.0032" x2="8.74609" y2="22.0032" gradientUnits="userSpaceOnUse">
<stop offset="0.035" stop-color="#CF1659"/>
<stop offset="0.405" stop-color="#FB4EA1"/>
<stop offset="0.575" stop-color="#FF5A82"/>
<stop offset="0.9999" stop-color="#DB684F"/>
<stop offset="1" stop-color="#FFA439"/>
</linearGradient>
<radialGradient id="paint7_radial_165_1022" cx="0" cy="0" r="1" gradientUnits="userSpaceOnUse" gradientTransform="translate(14.12 32.3284) scale(35.3738 17.0677)">
<stop stop-color="#CC47FF"/>
<stop offset="1" stop-color="#9A5CFF"/>
</radialGradient>
<linearGradient id="paint8_linear_165_1022" x1="26.8866" y1="12.2219" x2="17.1191" y2="12.2219" gradientUnits="userSpaceOnUse">
<stop offset="0.035" stop-color="#CF1659"/>
<stop offset="0.405" stop-color="#FB4EA1"/>
<stop offset="0.575" stop-color="#FF5A82"/>
<stop offset="0.9999" stop-color="#DB684F"/>
<stop offset="1" stop-color="#FFA439"/>
</linearGradient>
<radialGradient id="paint9_radial_165_1022" cx="0" cy="0" r="1" gradientUnits="userSpaceOnUse" gradientTransform="translate(20.905 26.8514) scale(24.9207 24.1827)">
<stop stop-color="#CC47FF"/>
<stop offset="1" stop-color="#9A5CFF"/>
</radialGradient>
<linearGradient id="paint10_linear_165_1022" x1="15.4101" y1="9.04368" x2="1.00977" y2="9.04368" gradientUnits="userSpaceOnUse">
<stop offset="0.035" stop-color="#CF1659"/>
<stop offset="0.405" stop-color="#FB4EA1"/>
<stop offset="0.575" stop-color="#FF5A82"/>
<stop offset="0.9999" stop-color="#DB684F"/>
<stop offset="1" stop-color="#FFA439"/>
</linearGradient>
<radialGradient id="paint11_radial_165_1022" cx="0" cy="0" r="1" gradientUnits="userSpaceOnUse" gradientTransform="translate(6.59134 17.8767) scale(36.7411 14.6011)">
<stop stop-color="#CC47FF"/>
<stop offset="1" stop-color="#9A5CFF"/>
</radialGradient>
<linearGradient id="paint12_linear_165_1022" x1="26.879" y1="18.8123" x2="12.5293" y2="18.8123" gradientUnits="userSpaceOnUse">
<stop offset="0.035" stop-color="#CF1659"/>
<stop offset="0.405" stop-color="#FB4EA1"/>
<stop offset="0.575" stop-color="#FF5A82"/>
<stop offset="0.9999" stop-color="#DB684F"/>
<stop offset="1" stop-color="#FFA439"/>
</linearGradient>
<radialGradient id="paint13_radial_165_1022" cx="0" cy="0" r="1" gradientUnits="userSpaceOnUse" gradientTransform="translate(18.0912 27.6247) scale(36.6118 14.5671)">
<stop stop-color="#CC47FF"/>
<stop offset="1" stop-color="#9A5CFF"/>
</radialGradient>
<linearGradient id="paint14_linear_165_1022" x1="10.7681" y1="15.6675" x2="1" y2="15.6675" gradientUnits="userSpaceOnUse">
<stop offset="0.035" stop-color="#CF1659"/>
<stop offset="0.405" stop-color="#FB4EA1"/>
<stop offset="0.575" stop-color="#FF5A82"/>
<stop offset="0.9999" stop-color="#DB684F"/>
<stop offset="1" stop-color="#FFA439"/>
</linearGradient>
<radialGradient id="paint15_radial_165_1022" cx="0" cy="0" r="1" gradientUnits="userSpaceOnUse" gradientTransform="translate(4.7861 30.2976) scale(24.9222 24.1838)">
<stop stop-color="#CC47FF"/>
<stop offset="1" stop-color="#9A5CFF"/>
</radialGradient>
</defs>
</svg>
